<svg xmlns="http://www.w3.org/2000/svg" xmlns:xlink="http://www.w3.org/1999/xlink" contentStyleType="text/css" data-diagram-type="CLASS" height="327px" preserveAspectRatio="none" style="width:566px;height:327px;background:#FFFFFF;" version="1.1" viewBox="0 0 566 327" width="566px" zoomAndPan="magnify"><defs/><g><!--class EnergyTradeOffer--><g class="entity" data-entity="EnergyTradeOffer" data-source-line="5" data-uid="ent0002" id="entity_EnergyTradeOffer"><rect fill="#F1F1F1" height="221.3711" rx="2.5" ry="2.5" style="stroke:#181818;stroke-width:0.5;" width="552.5449" x="7" y="7"/><ellipse cx="219.2866" cy="23" fill="#ADD1B2" rx="11" ry="11" style="stroke:#181818;stroke-width:1;"/><path d="M221.7598,29.1431 Q221.1787,29.4419 220.5396,29.5913 Q219.9004,29.7407 219.1948,29.7407 Q216.688,29.7407 215.3682,28.0889 Q214.0483,26.437 214.0483,23.3159 Q214.0483,20.1865 215.3682,18.5347 Q216.688,16.8828 219.1948,16.8828 Q219.9004,16.8828 220.5479,17.0322 Q221.1953,17.1816 221.7598,17.4805 L221.7598,20.2031 Q221.1289,19.6221 220.5354,19.3523 Q219.9419,19.0825 219.311,19.0825 Q217.9663,19.0825 217.2815,20.1492 Q216.5967,21.2158 216.5967,23.3159 Q216.5967,25.4077 217.2815,26.4744 Q217.9663,27.541 219.311,27.541 Q219.9419,27.541 220.5354,27.2712 Q221.1289,27.0015 221.7598,26.4204 Z " fill="#000000"/><text fill="#000000" font-family="sans-serif" font-size="14" lengthAdjust="spacing" textLength="119.4717" x="239.7866" y="28.291">EnergyTradeOffer</text><line style="stroke:#181818;stroke-width:0.5;" x1="8" x2="558.5449" y1="39" y2="39"/><text fill="#000000" font-family="sans-serif" font-size="14" lengthAdjust="spacing" textLength="39.5664" x="13" y="56.5352">string</text><text fill="#000000" font-family="sans-serif" font-size="14" font-weight="bold" lengthAdjust="spacing" textLength="94.3086" x="56.9961" y="56.5352">pricingModel</text><text fill="#000000" font-family="sans-serif" font-size="14" lengthAdjust="spacing" textLength="369.5098" x="155.7344" y="56.5352">{"PER_KWH", "TIME_OF_DAY", "SUBSCRIPTION", "FIXED"}</text><text fill="#000000" font-family="sans-serif" font-size="14" lengthAdjust="spacing" textLength="540.5449" x="13" y="73.0234">string settlementType {"REAL_TIME", "HOURLY", "DAILY", "WEEKLY", "MONTHLY"}</text><text fill="#000000" font-family="sans-serif" font-size="14" lengthAdjust="spacing" textLength="140.5879" x="13" y="89.5117">string sourceMeterId</text><text fill="#000000" font-family="sans-serif" font-size="14" lengthAdjust="spacing" textLength="162.3945" x="13" y="106">object wheelingCharges</text><text fill="#000000" font-family="sans-serif" font-size="14" lengthAdjust="spacing" textLength="179.7168" x="13" y="122.4883">number minimumQuantity</text><text fill="#000000" font-family="sans-serif" font-size="14" lengthAdjust="spacing" textLength="183.2988" x="13" y="138.9766">number maximumQuantity</text><text fill="#000000" font-family="sans-serif" font-size="14" lengthAdjust="spacing" textLength="182.3145" x="13" y="155.4648">TimePeriod validityWindow</text><text fill="#000000" font-family="sans-serif" font-size="14" lengthAdjust="spacing" textLength="163.8779" x="13" y="171.9531">object[] timeOfDayRates</text><text fill="#000000" font-family="sans-serif" font-size="14" lengthAdjust="spacing" textLength="201.5918" x="13" y="188.4414">PriceSpecification beckn:price</text><text fill="#000000" font-family="sans-serif" font-size="14" lengthAdjust="spacing" textLength="194.5371" x="13" y="204.9297">Quantity beckn:maxQuantity</text><text fill="#000000" font-family="sans-serif" font-size="14" lengthAdjust="spacing" textLength="209.0703" x="13" y="221.418">TimePeriod beckn:timeWindow</text></g><!--class PriceSpecification--><g class="entity" data-entity="PriceSpecification" data-source-line="19" data-uid="ent0003" id="entity_PriceSpecification"><rect fill="#F1F1F1" height="32" rx="2.5" ry="2.5" style="stroke:#181818;stroke-width:0.5;" width="150.5215" x="53.01" y="288.37"/><ellipse cx="68.01" cy="304.37" fill="#ADD1B2" rx="11" ry="11" style="stroke:#181818;stroke-width:1;"/><path d="M70.4831,310.5131 Q69.9021,310.8119 69.2629,310.9613 Q68.6238,311.1107 67.9182,311.1107 Q65.4114,311.1107 64.0915,309.4589 Q62.7717,307.807 62.7717,304.6859 Q62.7717,301.5565 64.0915,299.9047 Q65.4114,298.2528 67.9182,298.2528 Q68.6238,298.2528 69.2712,298.4022 Q69.9187,298.5516 70.4831,298.8505 L70.4831,301.5731 Q69.8523,300.9921 69.2588,300.7223 Q68.6653,300.4525 68.0344,300.4525 Q66.6897,300.4525 66.0049,301.5192 Q65.3201,302.5858 65.3201,304.6859 Q65.3201,306.7777 66.0049,307.8444 Q66.6897,308.911 68.0344,308.911 Q68.6653,308.911 69.2588,308.6412 Q69.8523,308.3715 70.4831,307.7904 Z " fill="#000000"/><text fill="#000000" font-family="sans-serif" font-size="14" lengthAdjust="spacing" textLength="118.5215" x="82.01" y="309.661">PriceSpecification</text></g><!--class Quantity--><g class="entity" data-entity="Quantity" data-source-line="20" data-uid="ent0005" id="entity_Quantity"><rect fill="#F1F1F1" height="32" rx="2.5" ry="2.5" style="stroke:#181818;stroke-width:0.5;" width="89.8184" x="238.36" y="288.37"/><ellipse cx="253.36" cy="304.37" fill="#ADD1B2" rx="11" ry="11" style="stroke:#181818;stroke-width:1;"/><path d="M255.8331,310.5131 Q255.2521,310.8119 254.6129,310.9613 Q253.9738,311.1107 253.2682,311.1107 Q250.7614,311.1107 249.4415,309.4589 Q248.1217,307.807 248.1217,304.6859 Q248.1217,301.5565 249.4415,299.9047 Q250.7614,298.2528 253.2682,298.2528 Q253.9738,298.2528 254.6212,298.4022 Q255.2687,298.5516 255.8331,298.8505 L255.8331,301.5731 Q255.2023,300.9921 254.6088,300.7223 Q254.0153,300.4525 253.3844,300.4525 Q252.0397,300.4525 251.3549,301.5192 Q250.6701,302.5858 250.6701,304.6859 Q250.6701,306.7777 251.3549,307.8444 Q252.0397,308.911 253.3844,308.911 Q254.0153,308.911 254.6088,308.6412 Q255.2023,308.3715 255.8331,307.7904 Z " fill="#000000"/><text fill="#000000" font-family="sans-serif" font-size="14" lengthAdjust="spacing" textLength="57.8184" x="267.36" y="309.661">Quantity</text></g><!--class TimePeriod--><g class="entity" data-entity="TimePeriod" data-source-line="21" data-uid="ent0007" id="entity_TimePeriod"><rect fill="#F1F1F1" height="32" rx="2.5" ry="2.5" style="stroke:#181818;stroke-width:0.5;" width="108.4941" x="363.03" y="288.37"/><ellipse cx="378.03" cy="304.37" fill="#ADD1B2" rx="11" ry="11" style="stroke:#181818;stroke-width:1;"/><path d="M380.5031,310.5131 Q379.9221,310.8119 379.2829,310.9613 Q378.6438,311.1107 377.9382,311.1107 Q375.4314,311.1107 374.1115,309.4589 Q372.7917,307.807 372.7917,304.6859 Q372.7917,301.5565 374.1115,299.9047 Q375.4314,298.2528 377.9382,298.2528 Q378.6438,298.2528 379.2912,298.4022 Q379.9387,298.5516 380.5031,298.8505 L380.5031,301.5731 Q379.8723,300.9921 379.2788,300.7223 Q378.6853,300.4525 378.0544,300.4525 Q376.7097,300.4525 376.0249,301.5192 Q375.3401,302.5858 375.3401,304.6859 Q375.3401,306.7777 376.0249,307.8444 Q376.7097,308.911 378.0544,308.911 Q378.6853,308.911 379.2788,308.6412 Q379.8723,308.3715 380.5031,307.7904 Z " fill="#000000"/><text fill="#000000" font-family="sans-serif" font-size="14" lengthAdjust="spacing" textLength="76.4941" x="392.03" y="309.661">TimePeriod</text></g><!--link EnergyTradeOffer to PriceSpecification--><g class="link" data-entity-1="EnergyTradeOffer" data-entity-2="PriceSpecification" data-source-line="19" data-uid="lnk4" id="link_EnergyTradeOffer_PriceSpecification"><path codeLine="19" d="M190.87,228.78 C171.16,252.27 156.6483,269.5651 144.9683,283.4751" fill="none" id="EnergyTradeOffer-to-PriceSpecification" style="stroke:#181818;stroke-width:1;stroke-dasharray:7,7;"/><polygon fill="#181818" points="141.11,288.07,149.9607,283.7498,144.3253,284.2409,143.8342,278.6054,141.11,288.07" style="stroke:#181818;stroke-width:1;"/></g><!--link EnergyTradeOffer to Quantity--><g class="link" data-entity-1="EnergyTradeOffer" data-entity-2="Quantity" data-source-line="20" data-uid="lnk6" id="link_EnergyTradeOffer_Quantity"><path codeLine="20" d="M283.27,228.78 C283.27,252.27 283.27,268.16 283.27,282.07" fill="none" id="EnergyTradeOffer-to-Quantity" style="stroke:#181818;stroke-width:1;stroke-dasharray:7,7;"/><polygon fill="#181818" points="283.27,288.07,287.27,279.07,283.27,283.07,279.27,279.07,283.27,288.07" style="stroke:#181818;stroke-width:1;"/></g><!--link EnergyTradeOffer to TimePeriod--><g class="link" data-entity-1="EnergyTradeOffer" data-entity-2="TimePeriod" data-source-line="21" data-uid="lnk8" id="link_EnergyTradeOffer_TimePeriod"><path codeLine="21" d="M363.16,228.78 C380.19,252.27 392.557,269.3032 402.647,283.2132" fill="none" id="EnergyTradeOffer-to-TimePeriod" style="stroke:#181818;stroke-width:1;stroke-dasharray:7,7;"/><polygon fill="#181818" points="406.17,288.07,404.1234,278.4361,403.2342,284.0227,397.6476,283.1335,406.17,288.07" style="stroke:#181818;stroke-width:1;"/></g><!--SRC=[XP9HJy8m58NV-ojkzcpmtH0IX14M69lR21fZbgwzW-hQBLqdBeJ_RYUeGMViqxcvNyyzkUrES0IKbMb1einGrwH60ufAh2lACCQAQcfA3QfKI0XX1QrhS1NgRPjeoZ78SzHm863F8HTOy2FKHWkrXM4sghHWLlebns9udOtWu8Hkb2usS-SAdCJptJIOfTFnGrV6wzju4dbXuWMhhfvvz-xKEVPPsv2cG8dA96s5rZLonykqy-ikpeDrjFomd8wzazYuxkAa_62LpAtizoqRpT17WzhZ5q2PFICpiDyX5fQSxAZUOds1gARR84YXX6paNKEL4QRjHUZRdqWY98QeHSdXbHQ2s_v6A5xkU-8yFe6nU91FQHjHyoDFQ9UFSOLCv89H8qe56R8NTTEz2bwWdqdEWCttNxOJs4q_fpiIykjR30QZdXJztDV0tkxtPF8E]--></g></svg>