<svg xmlns="http://www.w3.org/2000/svg" xmlns:xlink="http://www.w3.org/1999/xlink" contentStyleType="text/css" data-diagram-type="CLASS" height="110px" preserveAspectRatio="none" style="width:196px;height:110px;background:#FFFFFF;" version="1.1" viewBox="0 0 196 110" width="196px" zoomAndPan="magnify"><defs/><g><!--class EnergyCustomer--><g class="entity" data-entity="EnergyCustomer" data-source-line="5" data-uid="ent0002" id="entity_EnergyCustomer"><rect fill="#F1F1F1" height="89.4648" rx="2.5" ry="2.5" style="stroke:#181818;stroke-width:0.5;" width="175.7344" x="7" y="7"/><ellipse cx="36.3728" cy="23" fill="#ADD1B2" rx="11" ry="11" style="stroke:#181818;stroke-width:1;"/><path d="M38.8459,29.1431 Q38.2648,29.4419 37.6257,29.5913 Q36.9865,29.7407 36.281,29.7407 Q33.7741,29.7407 32.4543,28.0889 Q31.1345,26.437 31.1345,23.3159 Q31.1345,20.1865 32.4543,18.5347 Q33.7741,16.8828 36.281,16.8828 Q36.9865,16.8828 37.634,17.0322 Q38.2814,17.1816 38.8459,17.4805 L38.8459,20.2031 Q38.215,19.6221 37.6215,19.3523 Q37.028,19.0825 36.3972,19.0825 Q35.0524,19.0825 34.3676,20.1492 Q33.6828,21.2158 33.6828,23.3159 Q33.6828,25.4077 34.3676,26.4744 Q35.0524,27.541 36.3972,27.541 Q37.028,27.541 37.6215,27.2712 Q38.215,27.0015 38.8459,26.4204 Z " fill="#000000"/><text fill="#000000" font-family="sans-serif" font-size="14" lengthAdjust="spacing" textLength="111.7949" x="53.5667" y="28.291">EnergyCustomer</text><line style="stroke:#181818;stroke-width:0.5;" x1="8" x2="181.7344" y1="39" y2="39"/><text fill="#000000" font-family="sans-serif" font-size="14" lengthAdjust="spacing" textLength="39.5664" x="13" y="56.5352">string</text><text fill="#000000" font-family="sans-serif" font-size="14" font-weight="bold" lengthAdjust="spacing" textLength="55.9385" x="56.9961" y="56.5352">meterId</text><text fill="#000000" font-family="sans-serif" font-size="14" lengthAdjust="spacing" textLength="163.7344" x="13" y="73.0234">number sanctionedLoad</text><text fill="#000000" font-family="sans-serif" font-size="14" lengthAdjust="spacing" textLength="161.4033" x="13" y="89.5117">string utilityCustomerId</text></g><!--SRC=[ROqn2iD030HxlK8_o0UCcv32a2ula7qRv-1EPoIvCCP_ZzC40fbwc7db14PTOkEAEiAS7C4g5Rx8X0SMCObch4r1H5CHTxufRDwkgqUhCDw9J_PdHaa7UrZMcRknhmZOaBhBsFyOkdvMxA9JvBERxatIlyOQkUJuZeP41z4R]--></g></svg>