<svg xmlns="http://www.w3.org/2000/svg" xmlns:xlink="http://www.w3.org/1999/xlink" contentStyleType="text/css" data-diagram-type="CLASS" height="110px" preserveAspectRatio="none" style="width:183px;height:110px;background:#FFFFFF;" version="1.1" viewBox="0 0 183 110" width="183px" zoomAndPan="magnify"><defs/><g><!--class EnergyTradeOrder--><g class="entity" data-entity="EnergyTradeOrder" data-source-line="5" data-uid="ent0002" id="entity_EnergyTradeOrder"><rect fill="#F1F1F1" height="89.4648" rx="2.5" ry="2.5" style="stroke:#181818;stroke-width:0.5;" width="162.8213" x="7" y="7"/><ellipse cx="25.197" cy="23" fill="#ADD1B2" rx="11" ry="11" style="stroke:#181818;stroke-width:1;"/><path d="M27.6702,29.1431 Q27.0891,29.4419 26.45,29.5913 Q25.8108,29.7407 25.1052,29.7407 Q22.5984,29.7407 21.2786,28.0889 Q19.9587,26.437 19.9587,23.3159 Q19.9587,20.1865 21.2786,18.5347 Q22.5984,16.8828 25.1052,16.8828 Q25.8108,16.8828 26.4583,17.0322 Q27.1057,17.1816 27.6702,17.4805 L27.6702,20.2031 Q27.0393,19.6221 26.4458,19.3523 Q25.8523,19.0825 25.2214,19.0825 Q23.8767,19.0825 23.1919,20.1492 Q22.5071,21.2158 22.5071,23.3159 Q22.5071,25.4077 23.1919,26.4744 Q23.8767,27.541 25.2214,27.541 Q25.8523,27.541 26.4458,27.2712 Q27.0393,27.0015 27.6702,26.4204 Z " fill="#000000"/><text fill="#000000" font-family="sans-serif" font-size="14" lengthAdjust="spacing" textLength="123.7168" x="39.9075" y="28.291">EnergyTradeOrder</text><line style="stroke:#181818;stroke-width:0.5;" x1="8" x2="168.8213" y1="39" y2="39"/><text fill="#000000" font-family="sans-serif" font-size="14" lengthAdjust="spacing" textLength="39.5664" x="13" y="56.5352">string</text><text fill="#000000" font-family="sans-serif" font-size="14" font-weight="bold" lengthAdjust="spacing" textLength="47.6123" x="56.9961" y="56.5352">bap_id</text><text fill="#000000" font-family="sans-serif" font-size="14" lengthAdjust="spacing" textLength="39.5664" x="13" y="73.0234">string</text><text fill="#000000" font-family="sans-serif" font-size="14" font-weight="bold" lengthAdjust="spacing" textLength="48.6582" x="56.9961" y="73.0234">bpp_id</text><text fill="#000000" font-family="sans-serif" font-size="14" lengthAdjust="spacing" textLength="150.8213" x="13" y="89.5117">number total_quantity</text></g><!--SRC=[TSun3i8m34RXtQVm3RX0rOsP0VRAQNvAfCG9ZZjKLUzUsE7Dt_1UAO9HcczSK0AiKuUpIa5lCkEE9YPUZRKgY6ZEqZjV5RPi3vE8cqKOxyIVzcT2ZWTtjwGB3s4CqgOKXqiO_u7s4-ZwdM6lBdbwhwAUVAE3w0G0]--></g></svg>