<svg xmlns="http://www.w3.org/2000/svg" xmlns:xlink="http://www.w3.org/1999/xlink" contentStyleType="text/css" data-diagram-type="CLASS" height="426px" preserveAspectRatio="none" style="width:658px;height:426px;background:#FFFFFF;" version="1.1" viewBox="0 0 658 426" width="658px" zoomAndPan="magnify"><defs/><g><!--class ChargingService--><g class="entity" data-entity="ChargingService" data-source-line="5" data-uid="ent0002" id="entity_ChargingService"><rect fill="#F1F1F1" height="320.3008" rx="2.5" ry="2.5" style="stroke:#181818;stroke-width:0.5;" width="644.6934" x="7" y="7"/><ellipse cx="270.416" cy="23" fill="#ADD1B2" rx="11" ry="11" style="stroke:#181818;stroke-width:1;"/><path d="M272.8892,29.1431 Q272.3081,29.4419 271.6689,29.5913 Q271.0298,29.7407 270.3242,29.7407 Q267.8174,29.7407 266.4976,28.0889 Q265.1777,26.437 265.1777,23.3159 Q265.1777,20.1865 266.4976,18.5347 Q267.8174,16.8828 270.3242,16.8828 Q271.0298,16.8828 271.6772,17.0322 Q272.3247,17.1816 272.8892,17.4805 L272.8892,20.2031 Q272.2583,19.6221 271.6648,19.3523 Q271.0713,19.0825 270.4404,19.0825 Q269.0957,19.0825 268.4109,20.1492 Q267.7261,21.2158 267.7261,23.3159 Q267.7261,25.4077 268.4109,26.4744 Q269.0957,27.541 270.4404,27.541 Q271.0713,27.541 271.6648,27.2712 Q272.2583,27.0015 272.8892,26.4204 Z " fill="#000000"/><text fill="#000000" font-family="sans-serif" font-size="14" lengthAdjust="spacing" textLength="109.3613" x="290.916" y="28.291">ChargingService</text><line style="stroke:#181818;stroke-width:0.5;" x1="8" x2="650.6934" y1="39" y2="39"/><text fill="#000000" font-family="sans-serif" font-size="14" lengthAdjust="spacing" textLength="39.5664" x="13" y="56.5352">string</text><text fill="#000000" font-family="sans-serif" font-size="14" font-weight="bold" lengthAdjust="spacing" textLength="106.7158" x="56.9961" y="56.5352">connectorType</text><text fill="#000000" font-family="sans-serif" font-size="14" lengthAdjust="spacing" textLength="258.1182" x="168.1416" y="56.5352">{"CCS2", "Type2", "CHAdeMO", "GB_T"}</text><text fill="#000000" font-family="sans-serif" font-size="14" lengthAdjust="spacing" textLength="52.7871" x="13" y="73.0234">number</text><text fill="#000000" font-family="sans-serif" font-size="14" font-weight="bold" lengthAdjust="spacing" textLength="96.8447" x="70.2168" y="73.0234">maxPowerKW</text><text fill="#000000" font-family="sans-serif" font-size="14" lengthAdjust="spacing" textLength="53.375" x="171.4912" y="73.0234">{1..500}</text><text fill="#000000" font-family="sans-serif" font-size="14" lengthAdjust="spacing" textLength="48.0293" x="13" y="89.5117">integer</text><text fill="#000000" font-family="sans-serif" font-size="14" font-weight="bold" lengthAdjust="spacing" textLength="90.0225" x="65.459" y="89.5117">socketCount</text><text fill="#000000" font-family="sans-serif" font-size="14" lengthAdjust="spacing" textLength="26.8174" x="159.9111" y="89.5117">{1..}</text><text fill="#000000" font-family="sans-serif" font-size="14" lengthAdjust="spacing" textLength="202.5967" x="13" y="106">number minPowerKW {0..500}</text><text fill="#000000" font-family="sans-serif" font-size="14" lengthAdjust="spacing" textLength="251.918" x="13" y="122.4883">boolean reservationSupported = true</text><text fill="#000000" font-family="sans-serif" font-size="14" lengthAdjust="spacing" textLength="166.4346" x="13" y="138.9766">Location serviceLocation</text><text fill="#000000" font-family="sans-serif" font-size="14" lengthAdjust="spacing" textLength="153.3438" x="13" y="155.4648">None[] amenityFeature</text><text fill="#000000" font-family="sans-serif" font-size="14" lengthAdjust="spacing" textLength="424.1631" x="13" y="171.9531">string items {"RESTAURANT", "RESTROOM", "WI-FI", "PARKING"}</text><text fill="#000000" font-family="sans-serif" font-size="14" lengthAdjust="spacing" textLength="90.2344" x="13" y="188.4414">string ocppId</text><text fill="#000000" font-family="sans-serif" font-size="14" lengthAdjust="spacing" textLength="86.8232" x="13" y="204.9297">string evseId</text><text fill="#000000" font-family="sans-serif" font-size="14" lengthAdjust="spacing" textLength="157.2676" x="13" y="221.418">string roamingNetwork</text><text fill="#000000" font-family="sans-serif" font-size="14" lengthAdjust="spacing" textLength="632.6934" x="13" y="237.9063">string parkingType {"OnStreet", "OffStreet", "Basement", "Mall", "FuelStation", "Office", "Hotel"}</text><text fill="#000000" font-family="sans-serif" font-size="14" lengthAdjust="spacing" textLength="124.5234" x="13" y="254.3945">string connectorId</text><text fill="#000000" font-family="sans-serif" font-size="14" lengthAdjust="spacing" textLength="409.5615" x="13" y="270.8828">string powerType {"AC_SINGLE_PHASE", "AC_3_PHASE", "DC"}</text><text fill="#000000" font-family="sans-serif" font-size="14" lengthAdjust="spacing" textLength="298.9971" x="13" y="287.3711">string connectorFormat {"SOCKET", "CABLE"}</text><text fill="#000000" font-family="sans-serif" font-size="14" lengthAdjust="spacing" textLength="434.9775" x="13" y="303.8594">string chargingSpeed {"SLOW", "NORMAL", "FAST", "ULTRAFAST"}</text><text fill="#000000" font-family="sans-serif" font-size="14" lengthAdjust="spacing" textLength="407.5244" x="13" y="320.3477">string stationStatus {"Available", "Occupied", "OutOfService"}</text></g><!--class Location--><g class="entity" data-entity="Location" data-source-line="25" data-uid="ent0003" id="entity_Location"><rect fill="#F1F1F1" height="32" rx="2.5" ry="2.5" style="stroke:#181818;stroke-width:0.5;" width="89.5381" x="284.58" y="387.3"/><ellipse cx="299.58" cy="403.3" fill="#ADD1B2" rx="11" ry="11" style="stroke:#181818;stroke-width:1;"/><path d="M302.0531,409.4431 Q301.4721,409.7419 300.8329,409.8913 Q300.1938,410.0407 299.4882,410.0407 Q296.9814,410.0407 295.6615,408.3889 Q294.3417,406.737 294.3417,403.6159 Q294.3417,400.4865 295.6615,398.8347 Q296.9814,397.1828 299.4882,397.1828 Q300.1938,397.1828 300.8412,397.3322 Q301.4887,397.4816 302.0531,397.7805 L302.0531,400.5031 Q301.4223,399.9221 300.8288,399.6523 Q300.2353,399.3825 299.6044,399.3825 Q298.2597,399.3825 297.5749,400.4492 Q296.8901,401.5158 296.8901,403.6159 Q296.8901,405.7077 297.5749,406.7744 Q298.2597,407.841 299.6044,407.841 Q300.2353,407.841 300.8288,407.5712 Q301.4223,407.3015 302.0531,406.7204 Z " fill="#000000"/><text fill="#000000" font-family="sans-serif" font-size="14" lengthAdjust="spacing" textLength="57.5381" x="313.58" y="408.591">Location</text></g><!--link ChargingService to Location--><g class="link" data-entity-1="ChargingService" data-entity-2="Location" data-source-line="25" data-uid="lnk4" id="link_ChargingService_Location"><path codeLine="25" d="M329.35,327.57 C329.35,351.86 329.35,367.34 329.35,380.97" fill="none" id="ChargingService-to-Location" style="stroke:#181818;stroke-width:1;stroke-dasharray:7,7;"/><polygon fill="#181818" points="329.35,386.97,333.35,377.97,329.35,381.97,325.35,377.97,329.35,386.97" style="stroke:#181818;stroke-width:1;"/></g><!--SRC=[XLF1Zjem4BtdAopEBQMjUjiYcJGiY41Gd1M7gaAECx0MYMtP3bk4-FUrJPOLgrJDnM_iDoypp-DdNW62HjaJQg0fGPl8W4M2Dc0KPK10KKsjr4X80L4KiPeQW-9dglTSx0de8sU0pX5ottd7eQuko5Zjpj13EMPI260klJWfUFXIZj5v4CVas-0J6lYj0E8Phc2PUVWusHQ3ovsOQ7rPNgoXVzVo1VHYSrNwEXp-68tksLnOs5_fHh83s5YsmjxulT8D5vqkEezwD4ifQw02QJ2kNMgv5AHLIceB5Vg9h6xXZfzA5aZ8NDrvY-z8AsVdxp_8-IouFKs1sbP3dulSGcESRNb22loKurNXZV9HdcLBZpVppzEv1skSB-Qhnmy6TZgIAJMl-axWQA3_H4lgpDclmBv8VUXZkEaukDNVfQin4yHg0EkBoNQxzs123RXE0rxIklRhj8MQsE1CntTUUJIJ5kh-9cxpr5-lyjVOrOBZBN5cfCbsFSCayS9kw_jxz2l-pp-cKZVKEYcInOias1xZIPhy8-tjIIXmO-6IqcpZKrPPliHfQ1YJ8FAK5ZaEGQ-GkNhYhMdznUCZvJKjw-1DnbYhE5G1jpRRTI_GILsYwEEp70x7jscCNW40]--></g></svg>